<svg width="46" height="70" viewBox="0 0 46 70" fill="none" xmlns="http://www.w3.org/2000/svg">
<path d="M37.236 8.81104L37.3151 0.94043L45.067 1.17773L44.8297 46.6216C44.8034 47.4653 44.7374 48.3223 44.632 49.1924C44.5265 50.0625 44.3683 50.9194 44.1574 51.7632C43.3136 55.2173 41.6657 58.3682 39.2135 61.2158C37.9742 62.6133 36.5636 63.8657 34.9816 64.9731C33.3732 66.0542 31.5802 66.9375 29.6027 67.623C27.6251 68.335 25.463 68.7832 23.1163 68.9678C20.005 69.0732 16.9992 68.7437 14.0988 67.979C11.5148 67.2935 9.00989 66.0938 6.58411 64.3799C4.15833 62.666 2.35218 60.2798 1.16566 57.2212L8.79896 53.8989C9.72181 55.9819 11.027 57.5903 12.7145 58.7241C14.4284 59.8843 16.1686 60.6357 17.9352 60.9785C19.86 61.4004 21.8903 61.4795 24.026 61.2158C24.9489 61.0312 25.8058 60.7939 26.5968 60.5039C27.4142 60.2139 28.1657 59.8843 28.8512 59.5151C30.1959 58.7505 31.3429 57.8936 32.2921 56.9443C33.2677 56.0215 34.0455 55.0459 34.6256 54.0176C34.9157 53.4902 35.1661 52.9761 35.3771 52.4751C35.6144 51.9741 35.8253 51.4863 36.0099 51.0117C36.3527 50.0625 36.5768 49.1924 36.6823 48.4014C36.8141 47.6367 36.88 47.0435 36.88 46.6216V41.4404C35.298 42.9434 33.65 44.1035 31.9362 44.9209C30.2487 45.7119 28.6798 46.292 27.2296 46.6611C26.3859 46.8721 25.5421 47.0435 24.6984 47.1753C23.881 47.3071 23.0636 47.3862 22.2462 47.4126C16.0236 47.4126 10.882 45.3428 6.82142 41.2031C4.87024 39.2256 3.32776 36.813 2.19398 33.9653C1.08655 31.1177 0.532843 27.9141 0.532843 24.3545C0.532843 20.7686 1.15247 17.5781 2.39173 14.7832C3.65735 11.9619 5.29212 9.58887 7.29603 7.66406C9.3263 5.73926 11.6071 4.27588 14.1383 3.27393C16.6696 2.24561 19.2272 1.73145 21.8112 1.73145C23.6041 1.94238 25.4103 2.33789 27.2296 2.91797C28.7853 3.41895 30.4596 4.13086 32.2526 5.05371C34.0455 5.97656 35.7067 7.229 37.236 8.81104ZM22.2462 39.8188C25.7794 39.8188 28.9567 38.6587 31.778 36.3384C33.0963 35.2573 34.2169 33.9653 35.1398 32.4624C36.0626 30.9331 36.6954 29.2588 37.0382 27.4395V22.2583C36.7482 20.3862 36.1285 18.6855 35.1793 17.1562C34.2301 15.6006 33.07 14.269 31.6989 13.1616C28.8512 10.8413 25.6212 9.68115 22.0089 9.68115C20.1105 9.68115 18.3571 10.0767 16.7487 10.8677C15.1666 11.6323 13.7955 12.7002 12.6354 14.0713C11.5016 15.4424 10.6051 17.064 9.94593 18.936C9.28675 20.8081 8.95716 22.8252 8.95716 24.9873C8.95716 27.1494 9.28675 29.1401 9.94593 30.9595C10.6051 32.7524 11.528 34.3081 12.7145 35.6265C13.8746 36.9185 15.2589 37.9468 16.8673 38.7114C18.5021 39.4497 20.295 39.8188 22.2462 39.8188Z" fill="white"/>
<path d="M37.236 8.81104L35.798 10.2011L39.1869 13.7068L39.2359 8.83113L37.236 8.81104ZM37.3151 0.94043L37.3763 -1.05864L35.3357 -1.1211L35.3152 0.92033L37.3151 0.94043ZM45.067 1.17773L47.067 1.18818L47.0772 -0.761665L45.1282 -0.821331L45.067 1.17773ZM44.8297 46.6216L46.8287 46.6841L46.8296 46.658L46.8297 46.632L44.8297 46.6216ZM44.1574 51.7632L42.217 51.2781L42.2145 51.2886L44.1574 51.7632ZM39.2135 61.2158L40.7099 62.5428L40.7195 62.5319L40.729 62.5209L39.2135 61.2158ZM34.9816 64.9731L36.0972 66.633L36.113 66.6225L36.1285 66.6116L34.9816 64.9731ZM29.6027 67.623L28.9476 65.7334L28.9364 65.7373L28.9252 65.7413L29.6027 67.623ZM23.1163 68.9678L23.1841 70.9666L23.2287 70.9651L23.2732 70.9616L23.1163 68.9678ZM14.0988 67.979L13.5859 69.9121L13.5889 69.9129L14.0988 67.979ZM1.16566 57.2212L0.367508 55.3874L-1.39362 56.1539L-0.698957 57.9445L1.16566 57.2212ZM8.79896 53.8989L10.6275 53.0888L9.82269 51.2721L8.00081 52.0651L8.79896 53.8989ZM12.7145 58.7241L13.8356 57.0679L13.8299 57.064L12.7145 58.7241ZM17.9352 60.9785L18.3634 59.0249L18.3398 59.0197L18.3161 59.0151L17.9352 60.9785ZM24.026 61.2158L24.2711 63.2008L24.3451 63.1916L24.4182 63.177L24.026 61.2158ZM26.5968 60.5039L25.928 58.619L25.9181 58.6226L25.9083 58.6262L26.5968 60.5039ZM28.8512 59.5151L29.7994 61.2761L29.8197 61.2651L29.8398 61.2537L28.8512 59.5151ZM32.2921 56.9443L30.9177 55.4914L30.8975 55.5105L30.8779 55.5301L32.2921 56.9443ZM34.6256 54.0176L36.3676 55.0002L36.3729 54.9908L36.378 54.9814L34.6256 54.0176ZM35.3771 52.4751L33.5696 51.6189L33.5508 51.6586L33.5338 51.699L35.3771 52.4751ZM36.0099 51.0117L37.8739 51.7366L37.8827 51.7139L37.891 51.691L36.0099 51.0117ZM36.6823 48.4014L34.7113 48.0616L34.7048 48.0992L34.6998 48.137L36.6823 48.4014ZM36.88 41.4404H38.88V36.7818L35.5025 39.9904L36.88 41.4404ZM31.9362 44.9209L32.785 46.7319L32.7971 46.7261L31.9362 44.9209ZM27.2296 46.6611L27.7147 48.6014L27.723 48.5993L27.2296 46.6611ZM24.6984 47.1753L24.3896 45.1992L24.3799 45.2008L24.6984 47.1753ZM22.2462 47.4126V49.4126H22.2785L22.3107 49.4116L22.2462 47.4126ZM6.82142 41.2031L8.24921 39.8026L8.24509 39.7984L6.82142 41.2031ZM2.19398 33.9653L0.329966 34.6902L0.332872 34.6977L0.335838 34.7051L2.19398 33.9653ZM2.39173 14.7832L0.566913 13.9646L0.563396 13.9725L2.39173 14.7832ZM7.29603 7.66406L5.91998 6.21262L5.91057 6.22167L7.29603 7.66406ZM14.1383 3.27393L14.8744 5.13354L14.8828 5.13024L14.8911 5.12686L14.1383 3.27393ZM21.8112 1.73145L22.0448 -0.254856L21.9284 -0.268555H21.8112V1.73145ZM27.2296 2.91797L27.8427 1.01424L27.8372 1.01248L27.2296 2.91797ZM31.778 36.3384L30.5098 34.7918L30.5076 34.7937L31.778 36.3384ZM35.1398 32.4624L36.8441 33.5089L36.8482 33.5023L36.8521 33.4957L35.1398 32.4624ZM37.0382 27.4395L39.0036 27.8098L39.0382 27.6262V27.4395H37.0382ZM37.0382 22.2583H39.0382V22.1043L39.0146 21.9521L37.0382 22.2583ZM35.1793 17.1562L33.472 18.198L33.476 18.2045L33.48 18.211L35.1793 17.1562ZM31.6989 13.1616L30.4355 14.7121L30.4422 14.7175L31.6989 13.1616ZM16.7487 10.8677L17.619 12.6684L17.6313 12.6624L16.7487 10.8677ZM12.6354 14.0713L11.1086 12.7794L11.1013 12.788L11.0941 12.7968L12.6354 14.0713ZM9.94593 30.9595L8.06553 31.6408L8.06877 31.6496L9.94593 30.9595ZM12.7145 35.6265L14.2026 34.2902L14.2011 34.2885L12.7145 35.6265ZM16.8673 38.7114L16.0086 40.5177L16.0263 40.5261L16.0441 40.5342L16.8673 38.7114ZM39.2359 8.83113L39.315 0.960529L35.3152 0.92033L35.2361 8.79094L39.2359 8.83113ZM37.2539 2.9395L45.0058 3.1768L45.1282 -0.821331L37.3763 -1.05864L37.2539 2.9395ZM43.0671 1.16729L42.8297 46.6111L46.8297 46.632L47.067 1.18818L43.0671 1.16729ZM42.8307 46.5591C42.8063 47.3411 42.7451 48.1385 42.6465 48.9517L46.6174 49.433C46.7298 48.506 46.8004 47.5896 46.8287 46.6841L42.8307 46.5591ZM42.6465 48.9517C42.5509 49.7402 42.4077 50.5154 42.2171 51.2781L46.0976 52.2483C46.3288 51.3234 46.5021 50.3848 46.6174 49.433L42.6465 48.9517ZM42.2145 51.2886C41.4499 54.4186 39.9562 57.2883 37.698 59.9108L40.729 62.5209C43.3751 59.448 45.1773 56.016 46.1002 52.2378L42.2145 51.2886ZM37.7171 59.8888C36.5852 61.1652 35.2928 62.314 33.8346 63.3347L36.1285 66.6116C37.8344 65.4174 39.3633 64.0613 40.7099 62.5428L37.7171 59.8888ZM33.8659 63.3132C32.4114 64.2908 30.7753 65.0998 28.9476 65.7334L30.2578 69.5127C32.3852 68.7752 34.3349 67.8176 36.0972 66.633L33.8659 63.3132ZM28.9252 65.7413C27.1342 66.3861 25.1494 66.8017 22.9595 66.9739L23.2732 70.9616C25.7766 70.7647 28.1161 70.2839 30.2801 69.5048L28.9252 65.7413ZM23.0486 66.9689C20.1245 67.068 17.3136 66.7582 14.6086 66.0451L13.5889 69.9129C16.6847 70.7291 19.8855 71.0784 23.1841 70.9666L23.0486 66.9689ZM14.6116 66.0459C12.2816 65.4277 9.99121 64.3383 7.73818 62.7464L5.43005 66.0133C8.02858 67.8492 10.748 69.1592 13.5859 69.9121L14.6116 66.0459ZM7.73818 62.7464C5.66679 61.283 4.09003 59.2297 3.03027 56.4978L-0.698957 57.9445C0.614331 61.3299 2.64987 64.0491 5.43005 66.0133L7.73818 62.7464ZM1.9638 59.055L9.5971 55.7328L8.00081 52.0651L0.367508 55.3874L1.9638 59.055ZM6.97038 54.7091C8.02705 57.0941 9.56171 59.0153 11.5991 60.3842L13.8299 57.064C12.4923 56.1653 11.4166 54.8698 10.6275 53.0888L6.97038 54.7091ZM11.5934 60.3803C13.4974 61.6692 15.4859 62.5406 17.5542 62.9419L18.3161 59.0151C16.8513 58.7309 15.3593 58.0993 13.8356 57.0679L11.5934 60.3803ZM17.507 62.9321C19.6723 63.4067 21.9314 63.4896 24.2711 63.2008L23.781 59.2309C21.8491 59.4694 20.0477 59.3941 18.3634 59.0249L17.507 62.9321ZM24.4182 63.177C25.4303 62.9746 26.3874 62.7109 27.2853 62.3817L25.9083 58.6262C25.2242 58.877 24.4674 59.0879 23.6338 59.2547L24.4182 63.177ZM27.2656 62.3888C28.1685 62.0684 29.0146 61.6987 29.7994 61.2761L27.903 57.7542C27.3167 58.0699 26.6599 58.3593 25.928 58.619L27.2656 62.3888ZM29.8398 61.2537C31.3172 60.4137 32.6129 59.452 33.7063 58.3586L30.8779 55.5301C30.0729 56.3351 29.0747 57.0873 27.8626 57.7766L29.8398 61.2537ZM33.6665 58.3973C34.7678 57.3555 35.6767 56.2249 36.3676 55.0002L32.8837 53.0349C32.4143 53.8669 31.7676 54.6875 30.9177 55.4914L33.6665 58.3973ZM36.378 54.9814C36.6981 54.3995 36.9797 53.8227 37.2204 53.2512L33.5338 51.699C33.3526 52.1295 33.1332 52.581 32.8732 53.0537L36.378 54.9814ZM37.1846 53.3313C37.4405 52.791 37.6706 52.2593 37.8739 51.7366L34.1459 50.2868C33.98 50.7133 33.7883 51.1573 33.5696 51.6189L37.1846 53.3313ZM37.891 51.691C38.2702 50.641 38.5362 49.6297 38.6647 48.6657L34.6998 48.137C34.6174 48.7551 34.4352 49.484 34.1288 50.3324L37.891 51.691ZM38.6532 48.7412C38.7912 47.9408 38.88 47.215 38.88 46.6216H34.88C34.88 46.8719 34.837 47.3326 34.7113 48.0616L38.6532 48.7412ZM38.88 46.6216V41.4404H34.88V46.6216H38.88ZM35.5025 39.9904C34.0506 41.3697 32.5734 42.4012 31.0752 43.1157L32.7971 46.7261C34.7267 45.8058 36.5453 44.517 38.2575 42.8904L35.5025 39.9904ZM31.0873 43.11C29.4875 43.8599 28.0388 44.3914 26.7363 44.7229L27.723 48.5993C29.3209 48.1926 31.0098 47.5639 32.785 46.7318L31.0873 43.11ZM26.7445 44.7208C25.9579 44.9175 25.173 45.0769 24.3896 45.1993L25.0071 49.1513C25.9112 49.01 26.8138 48.8266 27.7147 48.6014L26.7445 44.7208ZM24.3799 45.2008C23.6455 45.3193 22.913 45.3901 22.1817 45.4136L22.3107 49.4116C23.2142 49.3824 24.1164 49.295 25.0168 49.1498L24.3799 45.2008ZM22.2462 45.4126C16.5171 45.4126 11.9042 43.5288 8.24921 39.8026L5.39363 42.6036C9.85975 47.1568 15.53 49.4126 22.2462 49.4126V45.4126ZM8.24509 39.7984C6.50028 38.03 5.09725 35.8505 4.05211 33.2255L0.335838 34.7051C1.55828 37.7755 3.24021 40.4211 5.39774 42.6078L8.24509 39.7984ZM4.05798 33.2404C3.05396 30.6587 2.53284 27.7064 2.53284 24.3545H-1.46716C-1.46716 28.1218 -0.880856 31.5767 0.329966 34.6902L4.05798 33.2404ZM2.53284 24.3545C2.53284 21.0001 3.11187 18.0932 4.22006 15.5939L0.563396 13.9725C-0.806924 17.063 -1.46716 20.5371 -1.46716 24.3545H2.53284ZM4.21653 15.6018C5.38894 12.9883 6.88249 10.8344 8.68149 9.10646L5.91057 6.22167C3.70175 8.34329 1.92577 10.9355 0.56693 13.9646L4.21653 15.6018ZM8.67204 9.11547C10.5223 7.36137 12.5872 6.0389 14.8744 5.13354L13.4022 1.41431C10.6269 2.51286 8.13035 4.11714 5.92001 6.21265L8.67204 9.11547ZM14.8911 5.12686C17.1971 4.19002 19.4998 3.73145 21.8112 3.73145V-0.268555C18.9545 -0.268555 16.142 0.301193 13.3856 1.42099L14.8911 5.12686ZM21.5775 3.71775C23.2365 3.91292 24.9175 4.27998 26.6221 4.82346L27.8372 1.01248C25.9031 0.395805 23.9718 -0.0281563 22.0448 -0.254856L21.5775 3.71775ZM26.6166 4.82169C28.0475 5.2825 29.6199 5.94806 31.3373 6.83198L33.1679 3.27544C31.2993 2.31366 29.5231 1.55539 27.8427 1.01425L26.6166 4.82169ZM31.3373 6.83198C32.9191 7.64614 34.4067 8.76186 35.798 10.2011L38.6739 7.42099C37.0066 5.69615 35.172 4.30698 33.1679 3.27544L31.3373 6.83198ZM22.2462 41.8188C26.2596 41.8188 29.8823 40.4869 33.0484 37.8831L30.5076 34.7937C28.031 36.8305 25.2992 37.8188 22.2462 37.8188V41.8188ZM33.0461 37.8849C34.5426 36.6578 35.8088 35.195 36.8441 33.5089L33.4354 31.4159C32.6251 32.7356 31.65 33.8568 30.5098 34.7918L33.0461 37.8849ZM36.8521 33.4957C37.9027 31.7549 38.6183 29.8547 39.0036 27.8098L35.0728 27.0692C34.7725 28.6628 34.2226 30.1114 33.4274 31.4291L36.8521 33.4957ZM39.0382 27.4395V22.2583H35.0382V27.4395H39.0382ZM39.0146 21.9521C38.6856 19.8286 37.9769 17.8711 36.8786 16.1015L33.48 18.211C34.2802 19.5 34.8107 20.9438 35.0618 22.5645L39.0146 21.9521ZM36.8866 16.1145C35.8219 14.3696 34.5113 12.8623 32.9555 11.6057L30.4422 14.7175C31.6286 15.6758 32.6383 16.8315 33.472 18.198L36.8866 16.1145ZM32.9622 11.6112C29.7643 9.00543 26.0899 7.68115 22.0089 7.68115V11.6812C25.1525 11.6812 27.9381 12.6772 30.4355 14.7121L32.9622 11.6112ZM22.0089 7.68115C19.823 7.68115 17.7652 8.13894 15.866 9.07298L17.6313 12.6624C18.9489 12.0144 20.398 11.6812 22.0089 11.6812V7.68115ZM15.8783 9.06698C14.0386 9.95617 12.4454 11.1995 11.1086 12.7794L14.1622 15.3632C15.1456 14.2009 16.2947 13.3085 17.619 12.6684L15.8783 9.06698ZM11.0941 12.7968C9.79388 14.3691 8.78788 16.2031 8.05946 18.2718L11.8324 19.6003C12.4223 17.9249 13.2093 16.5157 14.1767 15.3458L11.0941 12.7968ZM8.05946 18.2718C7.31871 20.3755 6.95716 22.6191 6.95716 24.9873H10.9572C10.9572 23.0312 11.2548 21.2407 11.8324 19.6003L8.05946 18.2718ZM6.95716 24.9873C6.95716 27.3547 7.3185 29.5789 8.06555 31.6408L11.8263 30.2782C11.255 28.7013 10.9572 26.9442 10.9572 24.9873H6.95716ZM8.06877 31.6496C8.80893 33.6628 9.85843 35.4428 11.2279 36.9644L14.2011 34.2885C13.1975 33.1734 12.4013 31.842 11.8231 30.2693L8.06877 31.6496ZM11.2264 36.9627C12.5678 38.4565 14.1677 39.6425 16.0086 40.5177L17.726 36.9052C16.3502 36.2511 15.1815 35.3804 14.2026 34.2902L11.2264 36.9627ZM16.0441 40.5342C17.9596 41.3992 20.0364 41.8188 22.2462 41.8188V37.8188C20.5537 37.8188 19.0445 37.5002 17.6905 36.8887L16.0441 40.5342Z" fill="black"/>
</svg>
